<?xml version="1.0" encoding="utf-8"?>
<!-- Generator: Adobe Illustrator 16.0.0, SVG Export Plug-In . SVG Version: 6.00 Build 0)  -->
<!DOCTYPE svg PUBLIC "-//W3C//DTD SVG 1.1 Basic//EN" "http://www.w3.org/Graphics/SVG/1.1/DTD/svg11-basic.dtd">
<svg version="1.1" baseProfile="basic" id="Layer_1"
	 xmlns="http://www.w3.org/2000/svg" xmlns:xlink="http://www.w3.org/1999/xlink" x="0px" y="0px" width="612px" height="549.326px"
	 viewBox="0 0 612 549.326" xml:space="preserve">
<path fill="#010101" d="M152.831,281.297c29.915,0.004,54.169-24.244,54.174-54.159c0.004-29.915-24.244-54.169-54.159-54.173
	c-29.915-0.004-54.169,24.243-54.174,54.158c0,0.005,0,0.01,0,0.015C98.676,257.047,122.921,281.292,152.831,281.297z"/>
<circle fill="#010101" cx="458.183" cy="227.138" r="54.166"/>
<path fill="#010101" d="M0.158,227.138c0,84.329,68.351,152.673,152.672,152.673c38.491,0.053,75.57-14.49,103.762-40.696
	l48.941,53.255l48.94-53.225c28.19,26.186,65.257,40.714,103.732,40.658c84.328,0,152.74-68.358,152.74-152.672
	c0.044-42.956-18.052-83.933-49.829-112.835l49.957-54.354H500.325c-117.449-79.921-271.818-79.921-389.268,0H0l49.957,54.354
	C18.188,143.205,0.103,184.185,0.158,227.138z M561.508,227.138c0,57.065-46.26,103.325-103.325,103.325
	c-57.064,0-103.325-46.26-103.325-103.325c0.001-57.065,46.261-103.325,103.325-103.325
	C515.248,123.813,561.508,170.073,561.508,227.138L561.508,227.138z M305.511,49.95c39.38-0.049,78.375,7.748,114.709,22.935
	c-65.211,24.952-114.656,83.29-114.656,151.272c0-67.99-49.46-126.335-114.68-151.279C227.192,57.702,266.159,49.908,305.511,49.95z
	 M152.831,123.813c57.065,0,103.325,46.26,103.325,103.325c0,57.065-46.26,103.325-103.325,103.325S49.505,284.203,49.505,227.138
	C49.505,170.073,95.766,123.813,152.831,123.813L152.831,123.813L152.831,123.813z"/>
<path fill="#010101" d="M605.758,519.051c-3.447,0-6.241,2.794-6.241,6.241s2.794,6.242,6.241,6.242s6.242-2.795,6.242-6.242l0,0
	C611.996,521.847,609.204,519.055,605.758,519.051z M605.758,530.556c-2.91,0-5.271-2.36-5.271-5.271
	c0-2.911,2.36-5.271,5.271-5.271c2.911,0,5.271,2.359,5.271,5.271C611.028,528.195,608.669,530.556,605.758,530.556z"/>
<path fill="#010101" d="M607.783,524.23c0.023-0.98-0.752-1.796-1.733-1.819c-0.085-0.002-0.17,0.002-0.254,0.013h-1.995v5.677
	h0.979v-2.063h1.062l1.031,2.063h1.062l-1.137-2.259C607.433,525.566,607.828,524.922,607.783,524.23z M605.751,525.172h-0.972
	v-1.883h0.972c0.654,0,1.054,0.332,1.054,0.941C606.805,524.841,606.405,525.172,605.751,525.172z"/>
<path fill="#010101" d="M71.514,477.338v-10.752H55.047v63.999h16.489v-38.384c0-6.95,4.458-10.36,11.407-10.36h9.035v-15.255
	h-7.748C78.2,466.586,72.952,469.733,71.514,477.338z"/>
<path fill="#010101" d="M107.383,441.295c-5.539-0.037-10.059,4.423-10.096,9.961c-0.037,5.539,4.422,10.06,9.961,10.097
	c5.539,0.037,10.059-4.422,10.096-9.961c0.108-5.467-4.236-9.986-9.703-10.095C107.556,441.295,107.47,441.294,107.383,441.295z"/>
<rect x="99.162" y="466.586" fill="#010101" width="16.444" height="63.962"/>
<path fill="#010101" d="M160.887,465.509c-7.009-0.035-13.833,2.247-19.411,6.491v-5.414H125.07v82.74h16.444v-24.185
	c5.567,4.238,12.375,6.525,19.373,6.506c18.259,0,33.061-14.803,33.061-33.062c0-18.26-14.802-33.062-33.061-33.062V465.509z
	 M159.434,516.528c-9.921,0-17.965-8.043-17.965-17.965s8.043-17.966,17.965-17.966c9.922,0,17.965,8.044,17.965,17.966
	c0,0.002,0,0.005,0,0.007c0,9.918-8.04,17.958-17.958,17.958C159.439,516.528,159.437,516.528,159.434,516.528z"/>
<path fill="#010101" d="M479.808,492.961l-9.593-2.635c-6.31-1.642-8.771-3.584-8.771-6.92c0-3.335,3.456-5.519,8.402-5.519
	c4.714,0,8.403,3.087,8.403,7.024v0.369h15.156v-0.369c0-11.61-9.464-19.403-23.56-19.403c-13.959,0-24.094,7.793-24.094,18.53
	c0,8.35,5.542,14.645,15.194,17.257l9.193,2.492c6.979,1.936,9.569,4.081,9.569,7.921c0,4.051-3.765,6.776-9.328,6.776
	c-5.828,0-9.735-3.682-9.735-9.155v-0.369h-16.091v0.369c0,13.124,10.541,22.287,25.69,22.287c14.577,0,25.155-8.952,25.155-21.286
	C495.4,504.308,492.697,496.395,479.808,492.961z"/>
<path fill="#010101" d="M252.316,472c-5.578-4.244-12.402-6.526-19.411-6.49c-18.259,0-33.062,14.802-33.062,33.061
	c0,18.26,14.802,33.062,33.062,33.062c7.008,0.032,13.831-2.249,19.411-6.49v5.414h16.444v-64h-16.444V472z M252.316,498.57
	c0,9.922-8.043,17.966-17.965,17.966c-9.921,0-17.965-8.044-17.965-17.966s8.043-17.965,17.965-17.965c0.002,0,0.005,0,0.008,0
	c9.917,0,17.958,8.04,17.958,17.958C252.316,498.565,252.316,498.568,252.316,498.57z"/>
<path fill="#010101" d="M328.121,472c-5.575-4.243-12.396-6.525-19.403-6.49c-18.259,0-33.061,14.802-33.061,33.061
	c0,18.26,14.802,33.062,33.061,33.062c7.006,0.03,13.826-2.251,19.403-6.49v5.414h16.444v-86.738h-16.444V472z M310.164,516.528
	c-9.922,0.004-17.969-8.036-17.973-17.958c-0.004-9.921,8.035-17.968,17.957-17.972c9.922-0.005,17.969,8.035,17.973,17.957
	c0,0.005,0,0.01,0,0.015C328.121,508.488,320.081,516.528,310.164,516.528z"/>
<rect x="420.936" y="466.586" fill="#010101" width="16.444" height="63.962"/>
<path fill="#010101" d="M429.157,441.295c-5.538-0.037-10.059,4.423-10.097,9.961c-0.037,5.539,4.423,10.06,9.962,10.097
	c5.538,0.037,10.059-4.422,10.097-9.961c0.107-5.467-4.236-9.986-9.703-10.095C429.329,441.295,429.243,441.294,429.157,441.295z"/>
<path fill="#010101" d="M533.432,465.509c-18.26,0-33.062,14.803-33.062,33.062c0,18.26,14.802,33.062,33.062,33.062
	c18.259,0,33.061-14.802,33.061-33.062l0,0C566.492,480.312,551.69,465.509,533.432,465.509z M533.432,516.528
	c-9.922,0.004-17.969-8.036-17.973-17.958c-0.005-9.922,8.035-17.968,17.957-17.973c9.922-0.004,17.969,8.036,17.973,17.958
	c0,0.005,0,0.01,0,0.015C551.389,508.488,543.349,516.528,533.432,516.528z"/>
<polygon fill="#010101" points="63.088,443.817 0,443.817 0,458.492 23.356,458.492 23.356,530.556 39.74,530.556 39.74,458.492 
	63.088,458.492 "/>
<polygon fill="#010101" points="382.151,513.034 367.529,466.586 350.25,466.586 372.19,530.556 391.985,530.556 414.054,466.586 
	396.781,466.586 "/>
<path fill="#010101" d="M611.014,481.841v-15.255h-7.702c-6.024,0-11.294,3.147-12.718,10.752v-10.752h-16.481v63.999h16.481
	v-38.384c0-6.95,4.458-10.36,11.407-10.36H611.014z"/>
</svg>
